# xmcd CD database file
#
# Track frame offsets:
#	150
#	50870
#	111395
#	138457
#	160957
#	180712
#	202827
#
# Disc length: 3493 seconds
#
# Revision: 0
# Processed by: cddbd v1.5.1PL0 Copyright (c) Steve Scherf et al.
# Submitted via: CDex 1.51
#
DISCID=650da307
DTITLE=Miles Davis - Perfect Collection Jazz
DYEAR=1900
DGENRE=Jazz
TTITLE0=Bags' Groove
TTITLE1=Walkin
TTITLE2=My Funny Valentine
TTITLE3=Airegin
TTITLE4=You Don't Know What Love Is
TTITLE5=Doxy
TTITLE6=Tune Up 〜 When Lights Are Low
EXTD=
EXTT0=
EXTT1=
EXTT2=
EXTT3=
EXTT4=
EXTT5=
EXTT6=
PLAYORDER=
